<svg width="50" height="50" viewBox="0 0 50 50" fill="none" xmlns="http://www.w3.org/2000/svg">
<rect x="1.5" y="1.5" width="47" height="47" rx="23.5" stroke="white" stroke-width="3"/>
<path d="M23.58 33L20.076 26.64H19.092V33H14.988V16.152H21.876C23.204 16.152 24.332 16.384 25.26 16.848C26.204 17.312 26.908 17.952 27.372 18.768C27.836 19.568 28.068 20.464 28.068 21.456C28.068 22.576 27.748 23.576 27.108 24.456C26.484 25.336 25.556 25.96 24.324 26.328L28.212 33H23.58ZM19.092 23.736H21.636C22.388 23.736 22.948 23.552 23.316 23.184C23.7 22.816 23.892 22.296 23.892 21.624C23.892 20.984 23.7 20.48 23.316 20.112C22.948 19.744 22.388 19.56 21.636 19.56H19.092V23.736ZM32.5643 33.192C31.8443 33.192 31.2523 32.984 30.7883 32.568C30.3403 32.136 30.1163 31.608 30.1163 30.984C30.1163 30.344 30.3403 29.808 30.7883 29.376C31.2523 28.944 31.8443 28.728 32.5643 28.728C33.2683 28.728 33.8443 28.944 34.2923 29.376C34.7563 29.808 34.9883 30.344 34.9883 30.984C34.9883 31.608 34.7563 32.136 34.2923 32.568C33.8443 32.984 33.2683 33.192 32.5643 33.192Z" fill="white"/>
</svg>
